<svg width="24" height="24" viewBox="0 0 24 24" fill="none" xmlns="http://www.w3.org/2000/svg">
<path fill-rule="evenodd" clip-rule="evenodd" d="M3 0C1.34315 0 0 1.34315 0 3V21C0 22.6569 1.34315 24 3 24H21C22.6569 24 24 22.6569 24 21V3C24 1.34315 22.6569 0 21 0H3ZM15.094 7.9925H13.9985C13.1395 7.9925 12.9735 8.4145 12.973 9.031V10.5005H14.9115L14.646 12.6335H12.9735V18H10.8365V12.633H9.09351V10.5H10.8365V8.8195C10.8365 6.9935 11.9185 6 13.498 6C14.255 6 14.905 6.0585 15.094 6.0845V7.9925Z" fill="#6c6c6c"/>
</svg>
