<svg width="24" height="24" viewBox="0 0 24 24" fill="none" xmlns="http://www.w3.org/2000/svg">
<path fill-rule="evenodd" clip-rule="evenodd" d="M3 0C1.34315 0 0 1.34315 0 3V21C0 22.6569 1.34315 24 3 24H21C22.6569 24 24 22.6569 24 21V3C24 1.34315 22.6569 0 21 0H3ZM14.6907 5.99994H9.31319C8.43479 6.00098 7.59267 6.35044 6.97155 6.97156C6.35043 7.59268 6.00104 8.4348 6 9.3132V14.6907C6.00104 15.5691 6.35043 16.4112 6.97155 17.0323C7.59267 17.6535 8.43479 18.0028 9.31319 18.0039H14.6907C15.5691 18.0028 16.4113 17.6535 17.0324 17.0323C17.6535 16.4112 18.0029 15.5691 18.0039 14.6907V9.3132C18.0029 8.4348 17.6535 7.59268 17.0324 6.97156C16.4113 6.35044 15.5691 6.00098 14.6907 5.99994ZM16.9363 14.6907C16.9353 15.2859 16.6983 15.8565 16.2774 16.2774C15.8565 16.6983 15.286 16.9352 14.6907 16.9363H9.31319C8.71795 16.9352 8.14738 16.6983 7.72648 16.2774C7.30558 15.8565 7.06866 15.2859 7.06761 14.6907V9.3132C7.06866 8.71796 7.30558 8.14739 7.72648 7.72649C8.14738 7.30559 8.71795 7.06859 9.31319 7.06755H14.6907C15.286 7.06859 15.8565 7.30559 16.2774 7.72649C16.6983 8.14739 16.9353 8.71796 16.9363 9.3132V14.6907ZM12 8.91138C11.3884 8.91138 10.7905 9.09267 10.2819 9.43249C9.77334 9.77231 9.37695 10.2554 9.14288 10.8205C8.90881 11.3856 8.84757 12.0073 8.96689 12.6072C9.08622 13.2071 9.38076 13.7582 9.81327 14.1907C10.2458 14.6232 10.7968 14.9178 11.3967 15.0371C11.9966 15.1564 12.6184 15.0951 13.1835 14.8611C13.7486 14.627 14.2316 14.2307 14.5714 13.7221C14.9113 13.2135 15.0926 12.6156 15.0926 12.0039C15.0916 11.184 14.7654 10.398 14.1857 9.81827C13.6059 9.23853 12.8199 8.91242 12 8.91138ZM12 14.0328C11.5988 14.0328 11.2065 13.9139 10.8729 13.6909C10.5392 13.468 10.2792 13.1511 10.1256 12.7804C9.97203 12.4096 9.93187 12.0017 10.0102 11.6081C10.0884 11.2145 10.2817 10.853 10.5654 10.5693C10.8492 10.2855 11.2107 10.0923 11.6042 10.014C11.9978 9.93572 12.4057 9.97595 12.7765 10.1295C13.1472 10.2831 13.4641 10.5431 13.687 10.8767C13.91 11.2104 14.029 11.6026 14.029 12.0039C14.029 12.542 13.8152 13.0581 13.4347 13.4385C13.0542 13.819 12.5381 14.0328 12 14.0328ZM14.7214 8.18252C14.8629 8.06715 15.04 8.00449 15.2226 8.00526C15.4293 8.00613 15.6274 8.08812 15.7742 8.23369C15.9038 8.36225 15.9848 8.5319 16.0032 8.71354C16.0217 8.89517 15.9764 9.07754 15.8753 9.22955C15.7742 9.38155 15.6234 9.49378 15.4488 9.54695C15.2741 9.60012 15.0864 9.59095 14.9177 9.52108C14.7491 9.4512 14.6099 9.32487 14.524 9.16376C14.4381 9.00266 14.4109 8.81673 14.4469 8.63774C14.4829 8.45876 14.5799 8.29789 14.7214 8.18252Z" fill="#6c6c6c"/>
</svg>
