<svg width="40" height="40" viewBox="0 0 40 40" fill="none" xmlns="http://www.w3.org/2000/svg">
<path fill-rule="evenodd" clip-rule="evenodd" d="M5 0C2.23858 0 0 2.23858 0 5V35C0 37.7614 2.23858 40 5 40H35C37.7614 40 40 37.7614 40 35V5C40 2.23858 37.7614 0 35 0H5ZM20.914 10H24.3668C24.3668 12.5507 26.403 14.6377 29 14.7246V18.1449C27.3178 18.1159 25.7243 17.5652 24.4258 16.6377V23.6232C24.4258 27.1304 21.5337 30 17.9629 30C14.3921 30 11.5 27.1594 11.5 23.6232C11.5 20.1159 14.333 17.3043 17.8449 17.2464V20.6667C16.2513 20.7246 14.9528 22.029 14.9528 23.6232C14.9528 25.2464 16.2808 26.5797 17.9334 26.5797C19.586 26.5797 20.914 25.2464 20.914 23.6232V10Z" fill="#6A6968"/>
</svg>
