<svg width="24" height="24" viewBox="0 0 24 24" fill="none" xmlns="http://www.w3.org/2000/svg">
<path fill-rule="evenodd" clip-rule="evenodd" d="M3 0C1.34315 0 0 1.34315 0 3V21C0 22.6569 1.34315 24 3 24H21C22.6569 24 24 22.6569 24 21V3C24 1.34315 22.6569 0 21 0H3ZM16.5825 8.97274C17.0782 8.90974 17.5537 8.77999 18 8.58424C17.6655 9.08224 17.2552 9.51499 16.767 9.86149C16.7722 9.96574 16.776 10.0707 16.776 10.1795C16.776 13.43 14.301 17.18 9.774 17.18C8.38125 17.18 7.08975 16.7787 6 16.076C6.1935 16.1007 6.387 16.1097 6.58875 16.1097C7.73925 16.1097 8.802 15.7152 9.639 15.0605C8.5635 15.0372 7.659 14.321 7.34025 13.3467C7.4895 13.3797 7.6485 13.3887 7.806 13.3887C8.0325 13.3887 8.25075 13.3625 8.451 13.3077C7.33275 13.079 6.48 12.086 6.48 10.8905V10.8635C6.8085 11.0442 7.19625 11.159 7.5915 11.1665C6.9375 10.7292 6.49875 9.97399 6.49875 9.12199C6.49875 8.66824 6.62325 8.24674 6.8355 7.87849C8.05125 9.37174 9.861 10.352 11.9062 10.4517C11.8658 10.2732 11.8492 10.0857 11.8492 9.89074C11.8492 8.53549 12.9457 7.42999 14.3077 7.42999C15.0097 7.42999 15.6532 7.72774 16.1047 8.20849C16.6642 8.09674 17.1893 7.89649 17.6648 7.61299C17.4818 8.18974 17.0925 8.66824 16.5825 8.97274Z" fill="#6c6c6c"/>
</svg>
