<svg width="24" height="24" viewBox="0 0 24 24" fill="none" xmlns="http://www.w3.org/2000/svg">
<path fill-rule="evenodd" clip-rule="evenodd" d="M3 0C1.34315 0 0 1.34315 0 3V21C0 22.6569 1.34315 24 3 24H21C22.6569 24 24 22.6569 24 21V3C24 1.34315 22.6569 0 21 0H3ZM17.8647 9.05653C17.9545 9.26411 18.0005 9.48656 18 9.71109V14.2927C18 14.7455 17.8111 15.1797 17.475 15.4999C17.1388 15.8201 16.6829 16 16.2075 16H7.79249C7.31709 16 6.86117 15.8201 6.52501 15.4999C6.18885 15.1797 6 14.7455 6 14.2927V9.71109C5.99949 9.48656 6.04543 9.26411 6.13528 9.05653C6.22513 8.84896 6.35711 8.66032 6.52362 8.50138C6.69012 8.34244 6.88788 8.2163 7.10561 8.13027C7.32335 8.04423 7.55676 8 7.79249 8H16.2075C16.4432 8 16.6766 8.04423 16.8943 8.13027C17.1121 8.2163 17.3099 8.34244 17.4764 8.50138C17.6429 8.66032 17.7748 8.84896 17.8647 9.05653ZM10.7984 9.6323V13.9362L14.2259 11.7824L10.7984 9.6323Z" fill="#6c6c6c"/>
</svg>
